<?xml version="1.0" encoding="utf-8"?>
<!-- Generator: Adobe Illustrator 24.3.0, SVG Export Plug-In . SVG Version: 6.00 Build 0)  -->
<svg version="1.1" id="Layer_1" xmlns="http://www.w3.org/2000/svg" xmlns:xlink="http://www.w3.org/1999/xlink" x="0px" y="0px"
	 viewBox="0 0 1080 1080" style="enable-background:new 0 0 1080 1080;" xml:space="preserve">
<style type="text/css">
	.st0{fill:#2E2C82;enable-background:new    ;}
	.st1{enable-background:new    ;}
</style>
<path class="st0" d="M344.4,421.2c-85.3,0-170,0-255.6,0c0,14.5-0.1,28.4,0.2,42.2c0,1.1,2.3,2.9,3.7,3.1c3.4,0.5,6.9,0.2,10.4,0.2
	c63.9,0,127.9-0.1,191.8,0.3c8.1,0,16.4,1.7,24.4,3.6c10.6,2.4,17.3,9.6,20.3,20.1c0.9,3.1,2,6.4,2.1,9.5
	c0.2,20.2,1.3,40.5-0.1,60.6c-1.5,21-11.4,29.9-32.4,32.7c-7.3,1-14.7,1.3-22.1,1.3c-80,0.2-160,0.2-240.1,0.3
	c-0.8,0-1.7-0.2-3.2-0.3c0-12-0.1-23.9,0.2-35.8c0-1.2,3.1-3.2,4.8-3.3c6.7-0.4,13.5-0.1,20.2-0.1c73.5,0,147,0,220.5,0
	c3.2,0,6.4,0,10.3,0c0-15.5,0.1-30.3-0.2-45c0-1.1-3.6-3.1-5.5-3.1c-14.6-0.2-29.1-0.1-43.7-0.1c-50.9,0-101.8,0.1-152.6-0.2
	c-9-0.1-18.2-1.2-27.1-3.2c-11.8-2.6-19.5-10.5-21.7-22.6c-4.2-22.9-4-45.9-0.4-68.9c2.2-14,11.2-22.4,25-24.9
	c7.4-1.4,15.1-2.3,22.6-2.4c80-0.2,160,0,240.1-0.3c6.5,0,8.8,1.5,8.3,8.3C343.9,402.3,344.4,411.4,344.4,421.2z"/>
<path class="st0" d="M368,594.9c0-3,0-5.1,0-7.2c0-64.7,0-129.4,0-194c0-8.4,0-8.4,8.5-8.5c74.4,0,148.7,0,223.1,0
	c19.5,0,38.6,2.6,56.8,10.1c35.7,14.7,55.2,41.8,58.6,80.2c1.9,21.5,0.2,42.8-9.2,62.6c-14.3,30.2-38.8,47.5-71.4,52.8
	c-14.5,2.3-29.4,3.7-44.1,3.8c-71.3,0.4-142.6,0.3-213.9,0.3C373.7,594.9,371.2,594.9,368,594.9z M416.8,555.5c2.7,0,4.6,0,6.6,0
	c46.7-0.2,93.5-0.1,140.2-0.6c16.3-0.2,32.6-0.5,48.7-2.6c23-3,41.4-13.7,49-37.2c6-18.3,5.7-36.9-0.2-55.3
	c-4.9-15.5-15.1-26.9-30.5-31.6c-11.5-3.5-23.8-5.7-35.7-5.8c-57.4-0.6-114.8-0.3-172.2-0.3c-1.9,0-3.8,0.3-6,0.4
	C416.8,466.9,416.8,510.7,416.8,555.5z"/>
<path class="st0" d="M1038,385.1c0,12.8,0,24.4,0,36.7c-2.4,0.1-4.5,0.3-6.5,0.3c-69.6,0-139.2,0-208.8,0c-22.2,0-33.3,11-33.3,33.2
	c0,23.1,0,46.2,0,69.3c0,19.4,11.4,30.8,30.8,30.9c69.4,0,138.7,0,208.1,0c3,0,6,0,9.5,0c0,13.3,0,26,0,39.4c-2.6,0-4.8,0-6.9,0
	c-77.6,0-155.3,0-232.9,0c-22.5,0-50.7-21.7-56.4-43.5c-0.9-3.3-0.9-6.9-0.9-10.4c-0.1-32,0.7-64.1-0.3-96
	c-0.5-17.1,5.9-29.9,17.4-41.1c12.6-12.3,26.7-19.2,45.3-19c74.8,0.8,149.6,0.3,224.4,0.3C1030.8,385.1,1034,385.1,1038,385.1z"/>
<path class="st0" d="M920.8,427.2c34.1-0.1,62.4,27.7,62.5,61.3c0,34.8-27.3,62.9-61.4,63c-34,0.1-62.4-27.7-62.6-61.3
	C859.1,455.7,886.8,427.4,920.8,427.2z M864.7,492.8c2.5,8.1,3.9,15.2,6.9,21.6c5,11,5.9,11.1,17,5.9c1.5-0.7,3-3.4,2.9-5
	c-0.5-6-1.4-12.1-2.7-18c-0.4-1.7-2.5-4.1-4-4.3C878.8,492.5,872.7,492.8,864.7,492.8z M891.9,459.8c-3.7-1.4-7-3.1-10.6-4
	c-1.5-0.4-4.2,0.1-5,1.1c-6.2,8.5-10,17.9-10.4,29.2c6.7,0,12.7,0.2,18.7-0.2c1.4-0.1,3.7-2.2,4-3.6
	C890.1,475.1,890.9,467.8,891.9,459.8z M976.6,485.7c-0.7-11.1-4.3-20.5-10.5-29c-0.7-0.9-2.8-1.5-3.9-1.2c-4,1.3-7.9,3-11.6,4.5
	c1.4,9,2.6,17.3,3.9,25.7C961.8,485.7,968.9,485.7,976.6,485.7z M976.5,492.7c-6.8,0-12.7-0.2-18.5,0.2c-1.5,0.1-3.7,2.1-4,3.6
	c-1.2,6.2-1.6,12.5-2.8,18.7c-0.9,4.8,2.7,5.4,5.6,6.4c3.1,1,6.5,4.7,9.7-0.1C972.3,513.1,975.6,503.9,976.5,492.7z M917.8,515
	c0-6.7,0.2-12.5-0.2-18.4c-0.1-1.3-2-3.5-3.2-3.6c-6.2-0.4-12.5-0.2-19.8-0.2c1.2,7.8,2.1,14.7,3.5,21.4c0.2,1.2,2.7,2.7,4.1,2.6
	C907.2,516.7,912.1,515.8,917.8,515z M947.7,493.1c-8.1,0-15.1,0-23,0c0,6.7-0.3,13.2,0.2,19.6c0.1,1.2,3.4,3,5.3,3.1
	c4.6,0.3,9.3-0.3,14-0.5c0.1,0,0.2-0.4,0.2-0.6C945.5,507.7,946.6,500.7,947.7,493.1z M946.7,485.8c1.8-22.5-1-25.4-20.5-22
	c-0.4,0.1-0.7,0.4-1.1,0.7c0,7,0,14,0,21.3C932.5,485.8,939.4,485.8,946.7,485.8z M917.4,463.7c-5.5-0.7-10.6-1.6-15.7-1.9
	c-1.2-0.1-3.3,1.4-3.5,2.5c-1.3,6.9-2.2,13.9-3.3,21.3c8.2,0,15.2,0,22.6,0C917.4,478.3,917.4,471.5,917.4,463.7z M925,456.8
	c5.7-0.6,10.7-1.2,16.4-1.8c-3.7-8.8-7.2-16.3-16.4-20.3C925,442.1,925,448.9,925,456.8z M925,522.2c0,8.1,0,14.9,0,22.7
	c8.6-5.1,13.4-11.6,15.8-21C935.4,523.3,930.6,522.8,925,522.2z M917.3,456.9c0-7.8,0-14.6,0-22.4c-8.3,4.9-12.9,11.2-16.2,20.4
	C906.9,455.6,911.8,456.2,917.3,456.9z M917.2,544.1c0-7.6,0-14.5,0-22c-5.5,0.7-10.3,1.3-16.1,2C905,532.7,908.3,540.2,917.2,544.1
	z M960.2,448.7c-6.8-4.1-12.4-7.5-18.1-10.9C947.3,454.4,947.3,454.4,960.2,448.7z M883,530.5c6.2,3.7,11.8,7.1,17.3,10.4
	C893.7,523,895.1,524.3,883,530.5z M959.5,530.3c-10.8-5.8-16-2.3-17.5,11.5C948,537.8,953.5,534.3,959.5,530.3z M901.4,438.7
	c-0.4-0.4-0.8-0.8-1.1-1.3c-5.5,3.4-11.1,6.9-16.6,10.3c0.2,0.9,0.4,1.8,0.6,2.6c3.8,0,8.7,1.5,11-0.4
	C898.4,447.7,899.4,442.7,901.4,438.7z"/>
<path class="st1" d="M211.1,681.9c-3.4-1.1-6.2-2-10-3.3c-8,5.3-19.6,6.5-29.4-4.8c-6.7-7.8-6.9-20.2-0.5-28.3
	c7.7-9.8,17.6-11.3,32-4.3c0-8,0-15.6,0-23.9c2.9-0.2,5.1-0.3,7.9-0.5C211.1,638.3,211.1,659.3,211.1,681.9z M203.5,659.6
	c0.1-8.6-5.5-14.4-14-14.5c-8-0.1-14.6,6.3-14.7,14.1c-0.1,7.8,6.6,14.6,14.4,14.6C197.5,673.8,203.5,667.9,203.5,659.6z"/>
<path class="st1" d="M299.1,617.2c14-1.4,26,1.5,34.1,13.4c7.7,11.5,7.8,23.9,0.6,35.7c-7.9,13-20.4,15.7-34.7,14.5
	C299.1,659.6,299.1,638.6,299.1,617.2z M307.1,672.4c14.1,0.1,23.9-10.6,23.4-24.7c-0.5-13.1-11.1-23.1-23.4-21.8
	C307.1,641.3,307.1,656.7,307.1,672.4z"/>
<path class="st1" d="M822.4,666.1c1.7,1.8,3.3,3.4,4.9,5c-13.4,13.9-33.7,14.2-47,1.1c-12.9-12.7-12.6-33.8,0.5-46.9
	c12.8-12.8,33.2-12.4,46.7,1.5c-1.7,1.6-3.3,3.1-5.4,5c-7.5-5.6-15.5-9.8-24.4-6.6c-5.2,1.9-10.5,5.5-14.1,9.7
	c-7.3,8.7-6,22.2,1.9,30.5C795.3,675.8,806.5,676.2,822.4,666.1z"/>
<path class="st1" d="M578.7,640.6c0,13.6,0,26.8,0,41.5c-3.6-1.2-6.5-2.1-10.8-3.5c-7.4,5.7-16.8,5.6-25.6-1.5
	c-7.7-6.1-10.1-14.5-7.5-24.1c3.6-13.8,19.2-20.2,31.8-13.9C569.7,640.8,574.1,640.1,578.7,640.6z M570.6,659.6
	c0-8.8-5.6-14.5-14-14.5c-8.3,0-14.5,6.2-14.4,14.5c0,8,6.6,14.3,14.7,14.2C565,673.6,570.6,667.9,570.6,659.6z"/>
<path class="st1" d="M877.9,647.2c-8.8,8.3-17.5,16.4-26.5,24.9c5.9,2.5,11.4,2.6,15.7-1.3c3.8-3.4,7-3.6,10.9-0.8
	c-3.5,8.6-12.1,13.3-22.6,12c-9.6-1.1-17.8-9.5-19.2-19.4c-1.5-10.4,4.1-20.3,13.6-24.3C859.6,634.1,869.5,636.7,877.9,647.2z
	 M864.3,645.8c-5.5-1.4-10.4-1.2-14.8,2.7c-5.1,4.5-6.1,9.8-4.3,16.1C851.5,658.3,857.6,652.3,864.3,645.8z"/>
<path class="st1" d="M389.4,670.8c-6.6,9.9-16.2,13.8-26.3,10.7c-9.4-2.9-16.1-11.8-16.2-21.5c-0.1-10.5,5.8-19,15.7-22.4
	c9.2-3.1,18.8,0,25.4,9c-8.6,7.9-17.3,15.9-27,24.8c7.4,3.2,12.5,3,17.5-0.6C383.6,667,383.6,667,389.4,670.8z M356,664.2
	c6.1-6.3,12.2-12.4,18-18.4C361.7,642.8,353.5,650.9,356,664.2z"/>
<path class="st1" d="M1033.4,647c-8.8,8.2-17.5,16.3-26.6,24.9c6.5,3,12.1,2.8,16.5-1.4c4.1-4,7.1-2.4,10.8-0.2
	c-5.4,9.5-14.5,13.7-24.8,11.5c-9.1-1.9-16.6-10.3-17.5-19.6c-1-10.9,4.3-20,14-24C1015.2,634.2,1024.9,636.8,1033.4,647z
	 M1018.9,645.6c-5.6-1.8-11-0.6-15.3,4.1c-3.8,4.2-5.1,9.3-2.5,15.6C1007.2,658.6,1012.9,652.2,1018.9,645.6z"/>
<path class="st1" d="M42,663c2-0.8,4.2-1.6,6.7-2.5c0.8,2.3,1.4,4.1,2.1,5.9c1.9,4.7,5.8,7.9,10.5,7c3.8-0.7,8.8-3.3,10.2-6.4
	c1.5-3.4,0.6-8.9-1.2-12.5c-1.4-2.9-5.6-4.5-8.7-6.4c-2.2-1.4-4.7-2.2-6.9-3.5c-7-4.4-9.6-10.6-7.7-17.7c1.6-6,7-10.3,13.3-10.7
	c7.2-0.5,11.8,2.7,15.4,11.3c-1.9,1-3.9,2.1-6.2,3.3c-1-1.4-1.8-2.6-2.7-3.7c-3.1-3.6-6.8-4.2-10.2-0.8c-3.3,3.3-2.9,7.4,0.8,10.2
	c3.5,2.5,7.6,4.1,11.4,6.2c9.7,5.3,14.1,14,12,23.7c-2.2,9.7-11.3,16.3-21.2,15.6C50.1,681.1,42.9,673.6,42,663z"/>
<path class="st1" d="M664.4,682.2c-12.6,0-22.7-10.2-22.5-22.9c0.1-12.7,10.1-22.7,22.7-22.8c12.4-0.1,22.8,10.2,22.9,22.6
	C687.6,672.1,677.4,682.3,664.4,682.2z M665,645c-8.1-0.1-14.6,6-14.9,14c-0.3,8.1,6.5,14.8,14.8,14.8c7.9,0,14-6.5,14-14.8
	C678.9,651.2,672.9,645.1,665,645z"/>
<path class="st1" d="M897.5,680.8c-3.1,0-5.2,0-7.8,0c0-13.4,0-26.7,0-41.1c3.2,0.5,6,1,9.7,1.6c3.5-4,8.8-4.9,14.5-2.5
	c5.8,2.5,8.4,7.6,8.7,13.5c0.4,9.3,0.1,18.6,0.1,28.4c-2.5,0-4.8,0-7.9,0c0-8.1,0.4-16.3-0.2-24.4c-0.2-3.1-1.8-6.9-4.1-8.8
	c-5.5-4.4-12.6-0.7-12.8,6.4C897.4,662.7,897.5,671.3,897.5,680.8z"/>
<path class="st1" d="M730.6,680.9c-2.8,0-4.9,0-8,0c0-8,0.2-16-0.1-23.9c-0.1-2.7-0.6-6.3-2.3-7.7c-2.3-1.9-6.5-3.4-9-2.6
	c-2.4,0.8-5.2,4.7-5.5,7.4c-0.7,8.8-0.3,17.7-0.3,26.8c-3,0-5.3,0-8,0c0-13.5,0-26.6,0-39.7c0.4-0.4,0.7-0.9,1.1-0.9
	c5.1,0,9.9-0.1,15.2-2.1c8-3.1,16.3,4.4,16.8,14.1C731,661.6,730.6,670.9,730.6,680.9z"/>
<path class="st1" d="M514.2,680.8c0-8.3,0.1-16.5,0-24.7c-0.1-6.4-3.8-10.4-9.2-10.2c-5.2,0.1-7.9,3.7-7.9,10.4c0,8,0,16,0,24.4
	c-2.8,0-5,0-7.7,0c0-13.3,0-26.5,0-40.8c3,0.4,5.8,0.8,9.7,1.3c3.3-3.7,8.7-4.9,14.7-2.2c5.8,2.6,8.2,7.6,8.4,13.6
	c0.2,9.3,0.1,18.6,0.1,28.2C519.5,680.8,517.2,680.8,514.2,680.8z"/>
<path class="st1" d="M128.9,640.4c0,7.5-0.1,14.6,0,21.8c0.1,7.4,3.1,11,8.9,11.2c6.1,0.2,9.3-3.6,9.4-11.3c0.1-7.1,0-14.2,0-21.7
	c2.9,0,5,0,7.5,0c0,9.7,0.8,19.5-0.2,29c-0.9,8.1-8.7,12.8-17.4,12.4c-8.5-0.5-15-5.5-15.7-13.6c-0.8-8.2-0.6-16.5-0.4-24.7
	C121.2,637.7,125.3,640.5,128.9,640.4z"/>
<path class="st1" d="M225.9,694.4c2.9-6.2,6-11.9,8.2-18c1-2.7,1.1-6.4,0-8.9c-3.7-9-8.2-17.6-12.5-26.7c5.6-1.9,9.2-1.2,11.3,4.4
	c2,5.4,4.9,10.6,8,17.2c2.9-6.3,5.6-11.1,7.5-16.3c2-5.5,5.1-7.8,11.5-5.3c-3.1,6.6-6.1,13.2-9.2,19.8c-4.6,9.6-9.4,19.1-13.7,28.9
	C234.8,694.3,232.1,696.4,225.9,694.4z"/>
<path class="st1" d="M400.4,670.3c2.9,0.8,5.7,2,8.6,2.3c2.3,0.2,4.7-0.6,7-0.9c-0.4-2.3,0.1-5.4-1.3-6.9c-2.6-2.8-7.2-4-9.2-7
	c-2.1-3.2-4-8.4-2.8-11.6c1.1-3.2,5.8-6.1,9.5-7.2c4.8-1.4,8.6,1.6,11.3,7.7c-3.6,0.3-6.3,0.5-9,0.9c-1.5,0.2-2.9,0.7-4.3,1.1
	c0.6,1.5,0.9,3.3,2,4.3c1.9,1.7,4.4,2.8,6.5,4.3c5.5,3.7,7.9,8.8,5.9,15.2c-1.7,5.6-5.7,9.2-11.9,9.5c-6.8,0.3-10.8-3.3-13.3-9.2
	C399.8,672,400.1,671.2,400.4,670.3z"/>
<path class="st1" d="M940.7,624.7c2.6,0,4.7,0,7.5,0c0,4.7,0,9.4,0,14.3c2.8,0.5,5,1,7.5,1.5c0,2.2,0,4.3,0,6.9
	c-2,0.3-4,0.7-6.9,1.2c0,10.5,0,21.2,0,32.2c-3.1,0.1-5.4,0.3-8.4,0.4c0-10.9,0-21.4,0-32.2c-2.5-0.6-4.5-1.1-6.9-1.7
	c0-2.2,0-4.4,0-6.9c2.1-0.3,4-0.5,6.4-0.8C940.2,634.7,940.4,629.9,940.7,624.7z"/>
<path class="st1" d="M441.3,648.6c-3.1-0.4-5-0.7-7.1-1c0-2.4,0-4.5,0-7c2.1-0.3,4.1-0.7,6.9-1.1c0-4.6,0-9.3,0-14.6
	c2.9-0.2,5.1-0.3,8.1-0.5c0,5.2,0,9.9,0,14.9c2.6,0.5,4.7,0.8,7.2,1.3c0,2.2,0,4.4,0,7c-2.3,0.4-4.3,0.7-6.9,1.1
	c0,10.8,0,21.4,0,32.2c-2.8,0-5.1,0-8.2,0C441.3,670,441.3,659.5,441.3,648.6z"/>
<path class="st1" d="M103.4,680.8c-3.1,0-5.2,0-8,0c0-10.5,0-21,0-31.9c-2.6-0.5-4.6-0.9-7.1-1.4c0-2.1,0-4.4,0-7
	c2-0.3,4.1-0.7,6.8-1.1c0-4.7,0-9.4,0-14.5c2.9,0,5.2,0,8.1,0c0,4.9,0,9.5,0,14.5c2.7,0.4,4.7,0.8,7.2,1.2c0.2,2.2,0.3,4.3,0.5,6.8
	c-2.3,0.4-4.4,0.8-7.4,1.4C103.4,659.1,103.4,669.9,103.4,680.8z"/>
<path class="st1" d="M604.4,639.5c2.9,0.3,4.8,0.6,7.2,0.8c0,2.3,0,4.5,0,7.1c-2.1,0.4-4.1,0.7-6.9,1.2c0,10.6,0,21.2,0,32.1
	c-3,0-5.3,0-8.2,0c0-10.8,0-21.4,0-32.1c-2.5-0.4-4.4-0.7-6.8-1c-0.1-2.2-0.3-4.5-0.4-7.1c2.4-0.3,4.5-0.6,7.2-1c0-4.7,0-9.4,0-14.8
	c2.9-0.2,5.1-0.3,8.1-0.4C604.4,629.5,604.4,634.1,604.4,639.5z"/>
<path class="st1" d="M966.4,639c3.6,1.3,6.5,2.3,10.3,3.6c1.4-0.8,4.3-2.5,7.9-4.5c1.1,5,2.1,7.9-3.3,10.7c-3.4,1.7-6,7.3-6.7,11.5
	c-1.1,6.5-0.3,13.4-0.3,20.4c-2.9,0-5.1,0-7.8,0C966.4,667.4,966.4,654.3,966.4,639z"/>
<path class="st1" d="M475.4,680.7c-2.6,0-4.9,0-7.5,0c0-13.5,0-26.7,0-40.3c2.5,0,4.8,0,7.5,0C475.4,653.9,475.4,667.2,475.4,680.7z
	"/>
<path class="st1" d="M630.5,680.8c-2.6,0-4.7,0-7.3,0c0-13.4,0-26.5,0-40.4c2.2-0.2,4.4-0.4,7.3-0.6
	C630.5,653.7,630.5,667,630.5,680.8z"/>
<path class="st1" d="M627.2,620.4c2.5,4.1,5.3,6.6,5,8.5c-0.4,2.1-3.6,4.6-5.8,4.9c-1.5,0.2-4.7-3.4-4.7-5.2
	C621.7,626.3,624.4,624.2,627.2,620.4z"/>
<path class="st1" d="M479.6,628.1c-3.3,2.8-5.4,5.9-7.1,5.7c-2.3-0.3-4.2-3.1-6.3-4.9c1.9-2,3.5-5.1,5.7-5.6
	C473.5,622.9,475.9,625.7,479.6,628.1z"/>
</svg>
