<svg xmlns="http://www.w3.org/2000/svg" viewBox="0 0 1920 1080">
  <g style="isolation: isolate">
    <g id="OBJECTS">
      <g style="mix-blend-mode: overlay">
        <g>
          <path d="M1200.86,891.67l2.44,1.61c52.15,56.85,134,34.66,134,34.66-35.29-32.68-80.6-38.49-133.2-36.39C1203,891.56,1201.93,891.63,1200.86,891.67Z"/>
          <path d="M1221.71,852.7s71.54-39.74,170.65,40.5C1392.36,893.2,1292.55,895,1221.71,852.7Z"/>
          <path d="M1245.43,812.32s66-41.56,168.06,6C1413.49,818.3,1327.66,831.85,1245.43,812.32Z"/>
          <path d="M1270.91,780.72s98.25-55.25,181.61-33.85C1452.52,746.87,1388,788.41,1270.91,780.72Z"/>
          <path d="M1294.57,753.73s57.27-82.3,159.83-101.76C1454.4,652,1381.81,719.68,1294.57,753.73Z"/>
          <path d="M1278.34,773.22S1291.79,659,1359.55,619C1359.55,619,1334.71,689.86,1278.34,773.22Z"/>
          <path d="M1284,615.05s11.91,102.51-26.51,183.3C1257.49,798.35,1219.66,729.41,1284,615.05Z"/>
          <path d="M1221.7,642.71s24.9,87.94,10.39,190.26C1232.09,833,1186.46,747,1221.7,642.71Z"/>
          <path d="M1145.37,683.72s60.82,91.49,68.77,181.95C1214.14,865.67,1152.88,807.31,1145.37,683.72Z"/>
          <path d="M1109.2,809.27s24.65,70.36,90.52,78.1c1.94.38,3,.51,3,.51l-1.52-3.34C1178.9,838,1137.89,817.88,1109.2,809.27Z"/>
          <path d="M1168.24,952.65l14.14-3.12a389.57,389.57,0,0,1,14.23-40.19,429,429,0,0,1,34.7-69c13-22.2,28.77-42.75,45.57-62.28a425.5,425.5,0,0,1,31.68-32.88q11.61-10.86,24.25-20.64c-10.19,6.27-19.59,13.77-28.82,21.41l-2.35,2c-9.69,8.66-19.13,17.68-28,27.25a394.27,394.27,0,0,0-47.2,62.23C1214.86,857.14,1181.9,920.76,1168.24,952.65Z"/>
        </g>
        <g>
          <path d="M732.7,745.35l-2.25,1.25c-49.7,46.58-120.25,21.59-120.25,21.59,33.25-26.42,73.53-28.52,119.7-23.16C730.84,745.11,731.77,745.24,732.7,745.35Z"/>
          <path d="M717,709.64s-60.34-39.75-153,24.3C564,733.94,651.76,742.19,717,709.64Z"/>
          <path d="M698.75,672.51s-55.3-41-148.36-5.93C550.39,666.58,625.05,684.23,698.75,672.51Z"/>
          <path d="M678.42,643s-82.82-55.2-157.64-41.91C520.78,601.09,574.79,642,678.42,643Z"/>
          <path d="M659.39,617.65s-44.94-76.27-133.95-100.24C525.44,517.41,584.84,581.87,659.39,617.65Z"/>
          <path d="M672.38,635.9s-4.23-101.47-61.23-141.16C611.15,494.74,628.3,558.75,672.38,635.9Z"/>
          <path d="M677.93,496.26s-17.32,89.46,11.13,163.15C689.06,659.41,727,601.24,677.93,496.26Z"/>
          <path d="M730.94,524.76s-27.78,75.77-21.82,166.82C709.12,691.58,755,619,730.94,524.76Z"/>
          <path d="M795.41,566s-59.64,76.5-72.67,155.62C722.74,721.57,780.57,674.26,795.41,566Z"/>
          <path d="M818.9,678.9s-26.39,60.31-84.9,62.73c-1.74.21-2.66.26-2.66.26.52-1,1-1.92,1.56-2.84C755.62,699.57,793.06,684.57,818.9,678.9Z"/>
          <path d="M757.37,801.21l-12.24-3.69a344.36,344.36,0,0,0-9.86-36.34,379.25,379.25,0,0,0-25.95-63c-10-20.42-22.49-39.55-36-57.87a377,377,0,0,0-25.7-31.06q-9.5-10.34-20-19.78c8.55,6.2,16.33,13.42,24,20.76l1.94,1.88c8,8.28,15.67,16.85,22.81,25.86a348.85,348.85,0,0,1,37.42,57.94C722.68,714,747.46,772.22,757.37,801.21Z"/>
        </g>
      </g>
      <g>
        <g>
          <g>
            <g>
              <path d="M854.72,887.69H809.81l1.05-354.62L692.15,887.69H645.38s126.88-423.23,128-424.76c0-.07.05-.07.05-.07h115.8Z" style="fill: #ffb295"/>
              <g>
                <path d="M797.29,943.22H924.56a45.12,45.12,0,0,0-2-11.74c-3.92-13-15.61-31.19-50.53-24.41l-10.31-21.21s-22.33,1.77-60.78,0l-2.92,45.62Z"/>
                <path d="M797.29,943.22H924.56a45.12,45.12,0,0,0-2-11.74H798.05Z"/>
              </g>
              <g>
                <polygon points="705.77 937.86 673.09 947.08 620.42 947.08 620.42 911.8 637.14 881.99 701.83 881.99 705.01 924.69 705.77 937.86"/>
                <path d="M673.09,947.08H585a51.2,51.2,0,0,1,2.23-13.31c3.87-12.83,14.48-30.22,43.43-29.32C673.09,907.64,673.09,947.08,673.09,947.08Z"/>
                <path d="M705.77,937.86l-32.68,9.22H585a51.2,51.2,0,0,1,2.23-13.31h84.84l2-.9,31-8.18Z"/>
              </g>
              <path d="M889.24,885.22s-15.41,2.43-47.41,2.43-53.44-.21-53.44-.21l21.55-319.12L720.36,887.69s-12-.28-41.88-1.83-55.6-3.87-55.6-3.87L757,462.86H889.24Z" style="fill: #0a3e69"/>
              <path d="M897.42,305.79l-8,74.2v0s0,.16,0,.43-.07.69-.14,1.2c-.22,2.18-.67,6.21-1,9.91l-.27,2.47c0,.25-.07.51-.09.76l-.16,1.43c-.06.66-.13,1.27-.17,1.75l-.14,1.16c0,.09,0,.16,0,.23-.2,1.91-2,18.37-2,18.37l3.87,45.14-60.79,13.72-55-13.72v-41.2l-.18-1.13-.16-.94c-.89-5.3-3.31-20.16-6.08-37.15v0c-4.74-29.4-10.4-65.18-10.4-69.06,0,0,5-2.52,12.45-6h0l0,0c16.79-7.75,46.19-20.2,61-19.69C851.7,288.42,897.42,305.79,897.42,305.79Z" style="fill: #ffb295"/>
              <g>
                <path d="M1015.35,325.15S944,452.28,920.82,452.55s-46.09-68.63-46.09-68.63l22.69-78.13s24.76,84.81,27.38,86l66.66-81.27Z" style="fill: #ffb295"/>
                <path d="M874.05,399.2c.29.86.73,2.25,1.29,4.07,2.38,7.52,7.06,22.35,13.32,36.26a129,129,0,0,0,8.76,16.65c5.84,9.18,12.48,15.66,19.55,15.49,22-.54,88.45-123.77,88.45-123.77A47.45,47.45,0,0,0,981.15,318l-53.76,66.32s-20.14-74.69-30-78.5l-.52-.2c-9.71-3-20.2,14.58-20.2,14.58L875.5,356l-.79,23.71Z" style="fill: #fdd247"/>
              </g>
              <path d="M874.05,355.7l.66,24,.63,23.58L876.6,449l12.48,7.28-.42-16.72a129,129,0,0,0,8.76,16.65l-6.1-101.29L875.5,356Z" style="fill: #2e3442;opacity: 0.4;mix-blend-mode: overlay"/>
              <path d="M742.09,500s12,3.5,29.47,7.32c35.78,7.81,94.73,17,122,.38l-4.48-51.4-.42-16.72-.82-32.45c.38-3.7,4.1-62,4.1-62l5.48-39.27-.52-.19c-5.09-1.91-46.55-17.23-66.72-18-14.85-.51-44.25,12-61,19.69l0,0h0c-7.48,3.47-12.44,6-12.44,6l10.22,69.23.17-.14v0l.32-.32L756,434.89l-4.8,22.39Z" style="fill: #fdd247"/>
              <g>
                <g>
                  <path d="M852.26,293c-.17,5.29-1.13,14.2-12,24.66-21.65-9.71-29.14-28-29.14-28l0-1.48-.29-26.33c.44-5.38,36.9-8.47,36.9-8.47Z" style="fill: #ffb295"/>
                  <path d="M849.55,281.83s-21,7.53-38.71-11.53l-.07-8.48,6.5-5.88Z" style="fill: #ffb295;opacity: 0.5;mix-blend-mode: multiply"/>
                </g>
                <g>
                  <path d="M876.28,236.83c.14,1.94.25,3.81.32,5.56.25,6.06.07,10.82-.6,12.8-5.28,11.9-18.72,25.23-25.71,26.26-15.53,3.17-37-14.56-45.65-24.59-5.3-6.19-7.64-20.58-5.74-35.47,1.18-9.2,2.65-10.34,3.35-13.73,0,0,2.68-15.29,32.61-18.67,15.06-1.7,30,1.85,33.84,10.06C872.67,207.36,875.3,223.74,876.28,236.83Z" style="fill: #ffb295"/>
                  <g>
                    <path d="M830.17,246.59s-3.59,3.2-7.61,2.82-6.94-4.21-6.94-4.21,3.59-3.2,7.61-2.81S830.17,246.59,830.17,246.59Z" style="fill: #ffb295;opacity: 0.7000000000000001;mix-blend-mode: multiply"/>
                    <path d="M876.28,236.83c.14,1.94.25,3.81.32,5.56a9.72,9.72,0,0,1-5.11-1.08s1.55-3.42,4.56-4.42Z" style="fill: #ffb295;opacity: 0.7000000000000001;mix-blend-mode: multiply"/>
                  </g>
                  <path d="M835.36,231.73c-1.89,0-3.07,3.65-2.64,7.69s2.31,7.16,4.2,7,3.07-3.64,2.64-7.69a13.44,13.44,0,0,0-1.21-4.45S837.25,231.73,835.36,231.73Z"/>
                  <path d="M860.43,229.7c-1.79,0-2.91,3.44-2.5,7.27s2.18,6.78,4,6.59,2.91-3.45,2.5-7.28a12.61,12.61,0,0,0-1.15-4.21S862.22,229.7,860.43,229.7Z"/>
                  <g>
                    <path d="M846.23,225.94s-11.51-5.55-21.15,5.83C825.08,231.77,835.3,211.2,846.23,225.94Z"/>
                    <path d="M857.84,225a14.38,14.38,0,0,1,16.88,1.51S864.11,212.32,857.84,225Z"/>
                    <path d="M850.32,242.63c.81-.32,1.6-.63,2.41-.89a16.42,16.42,0,0,1,2.41-.62,5.82,5.82,0,0,1,1.17-.05,1.31,1.31,0,0,1,.86.31,1.91,1.91,0,0,1,.42.88,4.74,4.74,0,0,1,.13,1.14,7.22,7.22,0,0,1-1.57,4.41,7,7,0,0,1-4.23,2.36,6.55,6.55,0,0,0,2.59-.35,7.12,7.12,0,0,0,1.21-.59,6.25,6.25,0,0,0,1-.86,7.26,7.26,0,0,0,2-5,5.66,5.66,0,0,0-.18-1.4,1.42,1.42,0,0,0-.11-.35,2.17,2.17,0,0,0-.15-.35,2.33,2.33,0,0,0-.2-.34,2.15,2.15,0,0,0-.29-.32l-.17-.14-.2-.11a.59.59,0,0,0-.2-.09,1.06,1.06,0,0,0-.19-.06,3.23,3.23,0,0,0-.74-.11,5.17,5.17,0,0,0-1.38.18,11.4,11.4,0,0,0-2.46.95A17.2,17.2,0,0,0,850.32,242.63Z" style="fill: #ffb295;opacity: 0.7000000000000001;mix-blend-mode: multiply"/>
                    <g style="opacity: 0.7000000000000001;mix-blend-mode: multiply">
                      <path d="M854.21,260a17,17,0,0,1-3.54.75c-5.3.52-10.69-1.55-16-6.17a.58.58,0,0,1-.06-.81.57.57,0,0,1,.81-.06c5.06,4.4,10.15,6.39,15.12,5.9,7.2-.71,11.73-6.45,11.77-6.5a.57.57,0,1,1,.91.7A20.24,20.24,0,0,1,854.21,260Z" style="fill: #ffb295"/>
                    </g>
                  </g>
                  <g>
                    <path d="M801.53,235.94s-5.19-12-13-11.12-3.12,41.77,14.07,24.11Z" style="fill: #ffb295"/>
                    <g style="opacity: 0.7000000000000001;mix-blend-mode: multiply">
                      <path d="M800.16,242.74a.48.48,0,0,1-.51-.33s-1-3-2.9-3.6a3.29,3.29,0,0,0-3,.87.48.48,0,0,1-.58-.76,4.17,4.17,0,0,1,3.86-1,3.4,3.4,0,0,1,.82.38c-1.37-2.08-3.17-3.38-4.72-3.14a3.14,3.14,0,0,0-2.29,1.87,6.43,6.43,0,0,0-.58,1.7.48.48,0,0,1-.55.4.47.47,0,0,1-.39-.55c0-.16.64-3.89,3.66-4.36s6.39,3.18,7.58,8a.49.49,0,0,1-.34.58Z" style="fill: #ffb295"/>
                    </g>
                  </g>
                </g>
              </g>
              <path d="M994.25,320.16l-2.79-9.6a54.24,54.24,0,0,1,0-11c.66-4.79,7.45-11,7.45-11l58,4.46s-6.59,18.43-17.46,24.64-27.73,10.28-27.73,10.28Z" style="fill: #ffb295"/>
            </g>
            <path d="M873,213.11s15.51-13.8,9.71-18.84c-5.66-5.88-31.05-21.94-42.49-23.1-39.64-2.3-46,22.79-48.6,27.06-4.07,6-1.25,26.62-1.25,26.62l7.89,5.59s6.07,13.39,5.87,22.46c0,0,3.69-15.19,1.36-24.31,0,0,7.36-3.36,10.13-13.73,0,0,34.49,12.41,57.38-1.75Z"/>
            <path d="M742.09,500s12,3.5,29.47,7.32c48.61-12.92,83.62-52.88,83.62-52.88l-81.74-10.65,4.47-72.87-21.88,64-7.57,17.66,2.77,4.73Z" style="opacity: 0.5;mix-blend-mode: overlay"/>
          </g>
          <g>
            <rect x="1110.46" y="776.61" width="26.19" height="111.04" transform="translate(2247.11 1664.26) rotate(180)" style="fill: #0a3e69"/>
            <path d="M986.46,904h274.19a29,29,0,0,1,29,29V944H957.43V933.06A29,29,0,0,1,986.46,904Z" style="fill: #0a3e69"/>
            <rect x="1035.41" y="867.68" width="176.28" height="39.94" transform="translate(2247.11 1775.3) rotate(180)" style="fill: #0a3e69"/>
            <g>
              <path d="M972.39,752.22l4.07,2.36c.13.09.29.17.44.26q6.65,3.79,13.44,7.19a296.7,296.7,0,0,0,94.48,29.15l.41.06c10.45,1,21.2,1.6,32,1.62,1.79,0,3.56,0,5.36,0l2.54-.08c1.23,0,2.45,0,3.66-.11.75,0,1.55,0,2.3-.08,2.64-.11,5.28-.22,7.86-.41,1.38-.06,2.76-.15,4.1-.27l2.92-.22c3.41-.3,6.47-.6,9.33-.93.62,0,1.23-.13,1.83-.2l1.13-.13,2.1-.29,1.09-.11c.3,0,.94-.11,1.23-.17l1.39-.17.53-.08c1-.13,1.94-.26,2.88-.41l2.85-.42.38,0,1.53-.28c1.58-.25,3.09-.49,4.52-.78l2.36-.41c10.71-2,16.86-3.77,17.12-3.85,3.49-.9,7.24-1.94,10.9-3,1.13-.37,1.92-.62,2.73-.85s1.55-.45,2.38-.73l.76-.23c1-.34,1.88-.6,2.77-.88,4-1.29,7.8-2.57,11.54-3.91,2.71-1,5.39-2,8-3a.07.07,0,0,1,.06,0c.23-.07.43-.15.62-.22l.66-.27,1.62-.64,6.32-2.56,1.9-.79c1.87-.8,3.7-1.57,5.49-2.4.72-.3,1.45-.64,2.19-1l.34-.15c.75-.32,1.47-.66,2.22-1l.42-.19h0c.17-.06.32-.14.49-.21,1.69-.79,3.3-1.57,4.94-2.38l4.88-2.39.36-.17.94-.51.59-.29q.61-.33,1.2-.69A293.12,293.12,0,0,0,1369.28,664a297.76,297.76,0,0,0,33.58-65.61q1.79-4.92,3.43-10a295.88,295.88,0,0,0,13.22-63.76,295.71,295.71,0,0,0-24-147.72c-2.72-6.11-5.62-12.15-8.66-18A294,294,0,0,0,1269.45,238q-7.89-4.44-16.13-8.43c-.67-.34-1.35-.66-2-1l-11.75,22.06,2.94,1.38q7.79,3.77,15.24,8a269.13,269.13,0,0,1,107,110.39c2.8,5.35,5.49,10.93,8,16.55a271.27,271.27,0,0,1,17.54,164.83,276.34,276.34,0,0,1-7.64,28.84c-1,3-2,6.11-3.17,9.14a272.28,272.28,0,0,1-30.75,60.12,268.63,268.63,0,0,1-90.31,83.27l-.47.27v0c-.45.2-.89.45-1.32.67l-4.77,2.34c-1.6.81-2.92,1.45-4.32,2.1l-.51.22-.26.12-.53.24c-.42.19-.83.4-1.25.57l-.56.24-.62.28c-.51.25-1,.48-1.49.68l-.44.19c-1.64.76-3.3,1.45-5,2.17l-7.58,3.11c-.37.13-1.07.42-1.79.7l-.28.11-.55.19c-2.51,1-5.07,1.92-7.65,2.85-3.49,1.24-7.06,2.45-10.68,3.62l-2.88.9-.87.29c-.43.15-.89.3-1.32.41-1.28.36-2.38.7-3.47,1.06-3.09.9-6.6,1.86-10.13,2.81-.32.07-5.65,1.6-14.82,3.3l-2.45.45c-1.41.26-2.68.47-4,.68l-.43.07-4.13.66c-.92.14-1.68.25-2.47.34l-.72.1-.43.07-1.28.17-.68.08c-.36,0-.72.06-1.08.11-.62.1-1.24.17-1.9.25l-.94.11a2.76,2.76,0,0,1-.4.06l-.49.05c-.09,0-.53.06-.62.06-2.74.32-5.66.62-8.68.89-.69,0-1.71.11-2.73.18a2.71,2.71,0,0,1-.4,0c-1,.1-2.13.17-3.2.21l-.42,0c-2.37.19-4.79.28-7.28.38-.86,0-1.43,0-2.07.07-1.15.06-2.32.08-3.49.11l-2.45.08a301.89,301.89,0,0,1-34.13-1.47A271.61,271.61,0,0,1,1002.09,740q-6.39-3.16-12.62-6.71l-.39-.23c-1.66-.94-3.3-1.9-4.94-2.88Z" style="fill: #0a3e69"/>
              <path d="M978.91,740l4,2.3c.12.09.27.16.42.26q6.48,3.69,13.12,7l11.46-21.51,249.45-468.34,11.45-21.47q-7.71-4.33-15.74-8.23c-.66-.33-1.32-.64-2-1L1239.6,250.6,990.37,718.48Z" style="fill: #0a3e69"/>
              <g>
                <path d="M1366.86,519.17a241,241,0,0,1-3.95,26.52,243.61,243.61,0,0,1-6.86,26q-3.87,11.91-9,23.63a242.61,242.61,0,0,1-102.3,113.39.24.24,0,0,1-.09.06,245.48,245.48,0,0,1-88.74,29.9A273.28,273.28,0,0,1,1125,740c-1.77-.06-3.49-.09-5.2-.16-.58,0-1.17,0-1.75-.06-2.25-.09-4.45-.19-6.61-.35-1.07,0-2.17-.12-3.21-.21l-2.72-.2c-2.68-.23-5.28-.5-7.72-.78-.5,0-1-.1-1.44-.16-.92-.12-1.82-.22-2.69-.35-.47,0-.9-.09-1.33-.13s-1-.12-1.47-.21c-1-.13-1.91-.25-2.84-.4l-2.68-.39c-.44-.07-.87-.16-1.27-.24-1.28-.19-2.51-.39-3.68-.61-.78-.15-1.55-.3-2.25-.42-8.58-1.6-13.48-3-13.48-3-3.13-.83-6.24-1.68-9.28-2.58-.81-.26-1.62-.51-2.45-.75s-1.61-.5-2.41-.75-1.62-.52-2.43-.77q-4.8-1.54-9.48-3.21c-2.3-.82-4.59-1.68-6.83-2.54l-.27-.09c-.71-.28-1.43-.58-2.14-.84l-4.51-1.84-2-.84c-1.56-.67-3.13-1.33-4.66-2-.71-.29-1.45-.65-2.18-1s-1.36-.61-2.06-.93c-.16-.06-.31-.16-.47-.21-1.34-.62-2.63-1.24-3.92-1.88l-2.16-1-2.13-1.06c-.44-.23-.87-.48-1.32-.69-.25-.13-.49-.28-.74-.43A243.49,243.49,0,0,1,894.6,580.17c-1-2.71-1.93-5.46-2.83-8.22a244.89,244.89,0,0,1-6.87-25.86,247.74,247.74,0,0,1-4-26.51,242.8,242.8,0,0,1,19.74-121.37c2.24-5,4.63-10,7.13-14.82A243.1,243.1,0,0,1,1017.46,277.2c1.62-.79,3.27-1.56,4.92-2.32a247.41,247.41,0,0,1,23.63-9.36,243.22,243.22,0,0,1,176.36,8c7.23,3.22,14.26,6.71,21,10.51a243.24,243.24,0,0,1,87.4,83.42,244.35,244.35,0,0,1,23.74,49.9c.52,1.46,1,2.92,1.47,4.4,1.64,5,3.1,10.12,4.39,15.21,1.94,7.61,3.49,15.36,4.68,23.15A242.85,242.85,0,0,1,1366.86,519.17Z" style="fill: #62c1c5"/>
                <g style="opacity: 0.4;mix-blend-mode: overlay">
                  <path d="M1265.66,360.31c-.55-1.2-3.28-2.45-4.6-2.76-1.7-.38-5.47-.18-7,.62-2.12,1.08-5.15,5.06-6.12,7.22-.52,1.18-1.48,4.12-.66,5.14s4.44,1.06,5.88.82c3.18-.51,9.45-3.28,11.36-5.76C1265.37,364.5,1266.22,361.55,1265.66,360.31Z" style="fill: #fff"/>
                  <path d="M1296.18,345.24c-.65,1.39-.67,5,.32,6.22s4.84.57,5.91,1.65c1.73,1.75.36,8.13,2.51,9.39,2.41,1.43,8.66-4.38,10.91-2.66,2.46,1.87,2.46,10.12.15,12.12-.59.5-2.36-.28-3.16-.44-2.11-.44-6.19-2.14-8.36-2.42-2.41-.3-7.48-.72-9.67.25-3.62,1.59-7.19,9.82-10.82,11.39-3,1.33-10.72-1.77-13.37.2-2.26,1.66-4.61,8.17-3.33,10.69.63,1.28,4.76.78,5.35,2.05.77,1.67-.82,6.06-2.49,6.85-3,1.37-9.4-3.94-12.71-4.36-3.05-.41-9.71-.75-12.27.88-1.5,1-3,4.46-3.38,6.16-.82,3.37-1.45,10.86.29,13.92,1,1.66,4.74,3.5,6.58,4.15,2.8,1,8.79,1.31,11.76,1.56,2,.19,6.26,1.36,8,.39,1.46-.82,2.22-4.5,3.24-5.83,3-4,9.48-13,14.48-14,2-.45,5.86,3,7.93,2.76,2.7-.34,6.47-7.11,9-6,1.36.6.08,4.47.79,5.75,2.82,5.23,17.82,9.9,18.06,15.81,0,1-1.86,2.53-2.82,2.81-2.15.65-7.52-3.46-8.87-1.69-.88,1.18,1.67,4.24,2.79,5.21a12,12,0,0,0,5.36,2c1.75.09,5.63-.47,6.75-1.73,1.28-1.43-.32-6.09.91-7.59.49-.62,2.78-.23,3-1s-1.4-2.1-2-2.69c-2.68-2.67-10.2-5.85-12.26-9-1.41-2.17-4-8.16-2.2-10.05s8.57.14,11,1.52c1.06.62,2.24,2.94,3,3.88,2,2.38,7.4,6.32,8.41,9.27.78,2.32-1.53,7.31-.87,9.67.75,2.61,3.18,8.14,5.86,10.48a3.54,3.54,0,0,0,2.58,1.08c1.77-.2,2.5-2.7,3.06-5.52.63-3.11,1.06-6.61,2.43-7.95,1.21-1.14,4.57-3.16,6.48-2.93a244.45,244.45,0,0,0-44.5-78.35c-2.94.5-6.43.74-8.27,1.63C1300.16,341.46,1296.89,343.58,1296.18,345.24Z" style="fill: #fff"/>
                  <path d="M1271.14,377.18c2.47.22,7.58,1.26,9.9.44,1.87-.64,6.07-3.24,5.83-5.17-.18-1.43-4-1.82-5.09-2.8a19.44,19.44,0,0,1-2.51-3.7,43.88,43.88,0,0,1-3.51-7.6c-.65-2.48,1.17-8.5-.79-10.19-1.63-1.4-6.64-.41-8.54.52a8,8,0,0,0-2.76,3.16,6.61,6.61,0,0,0-.52,3.92c.41,1.11,2.7,2.42,3.62,3.22,1.3,1.1,4.53,2.78,5.25,4.29.45.93.71,3.35,0,4.08-1.06,1.12-5.09-.58-6.26.41-1.69,1.37-3.24,6.61-2,8.41C1264.82,377.66,1269.31,377,1271.14,377.18Z" style="fill: #fff"/>
                  <path d="M1355.1,429.24a19.72,19.72,0,0,0,5.3,7.75q-1.94-7.65-4.38-15.21C1355.59,424.43,1354.58,427.6,1355.1,429.24Z" style="fill: #fff"/>
                  <path d="M1104.44,370.44c-1,0-2.28,1.75-2.74,2.57s-1.34,2.81-.77,3.53c.83,1,4.25,1,5.32.29.76-.52,1.27-2.61,1-3.51S1105.44,370.47,1104.44,370.44Z" style="fill: #fff"/>
                  <path d="M913.66,387c2.13,4.52-3.26,14.7-2.59,19.62s4.13,14.91,7.91,18.22c1.55,1.37,6.19,3.32,8,2.36,1.33-.67,1.93-4.14,1.81-5.62-.3-4.4-6.76-11.63-7.76-16-.81-3.51-2.78-12.08,0-14.43,1.09-.91,4.73-.26,5.7.79,2.57,2.78-.46,11.3.49,14.93,1.56,5.93,11.87,15.82,11.38,21.91-.14,1.85-4.31,4.12-4.47,5.95-.39,4,4.12,11.8,7.15,14.52,4.21,3.89,16.46,11.22,21.4,8.41.77-.44-.29-3,.47-3.49,1.86-1.17,7.55.54,8.68,2.45.8,1.38-2.44,4.67-1.66,6.05.86,1.56,5.11,1.59,6.78,2.21,2.64,1,8.21,2.59,10.36,4.36,4.48,3.66,8.13,15.78,12.94,19,4.07,2.71,16.1.36,19.19,4.13,2.51,3.06,1.94,12.36-.16,15.69s-12,4-14.42,7.23c-2.11,2.79-1.55,10.34-2.44,13.7-.57,2.11-3.24,6-3,8.19.69,6.54,10.63,16,14.71,23.08a17.34,17.34,0,0,1,1.37,3c.61,2-.77,6.53.43,8.23s6.7,2.83,7.56,2.93,12.56,8.6,14.13,13.09c3.56,10.16-11,33-5.58,42.37.69,1.19,4.49,1,5.1,2.2,2.14,4.58-6.72,14-6.17,19,.36,3.64,6.75,9.16,7.32,12.75.39,2.43-.77,6-2,9.56-.23.7-.47,1.38-.69,2a30.27,30.27,0,0,0-1.48,5.88,6.84,6.84,0,0,0,0,1.68c.53,5.81,5.89,16.71,9.05,21.68,2.66,4.23,8.9,12.5,13.33,14.89,3.35,1.81,11.69,4.12,15,2.38,1.11-.6,2.31-3.32,2.11-4.54-.57-3.54-9-7.19-9.89-10.67-.27-1.1.83-3.37,1.26-4.43.5-1.37,2.22-3.88,2.72-5.28.25-.8,1-2.27,1.27-3.58a2.76,2.76,0,0,0-.11-2c-1.1-1.52-5.9-.2-7.46-1.24-1.28-.86-3.49-3.71-3.2-5.16.45-2.12,5.74-3.3,7-5,.67-.92,1.91-3.27,1.43-4.3-.76-1.65-5.88-1.32-6.7-2.92a4.53,4.53,0,0,1,.95-4.06c2-1.54,7.62.29,10.1-.1,4.15-.65,12.59-2.6,16-5a16.7,16.7,0,0,0,3.33-4.12,42.71,42.71,0,0,1,2.91-4.25c3.24-3.68,10.66-10.2,14.21-13.59,1-1,3.69-2.63,4.17-4,1.41-3.76-1.16-11.91-1.55-15.9a.08.08,0,0,1,0-.05l0,0c1.47-1.87,3.66-6.66,5.91-7.5,3.42-1.31,10.9,3.06,14.47,2.41,3.1-.55,8.93-3.74,10.81-6.22,4.54-6,3.26-22.82,7.07-29.35,2.15-3.77,10.25-8.37,12.61-12,1.23-1.85,3.92-6.31,3-8.37-1-2.38-7.65-2.61-9.48-4.44-2.19-2.26-2.62-9.53-5.14-11.41-4.52-3.36-16.93-1.52-22.3-3.29-1.64-.53-4.51-2.42-6-3.22-2.7-1.46-9.31-3.19-10.84-5.8-1.53-2.77,1.33-9.39.79-12.47-.49-2.91-2.21-9.09-4.57-10.92-3.18-2.46-12.72,0-16-2.42-3.5-2.58-4.58-12.23-7.42-15.46-1.5-1.74-5.55-5.86-7.68-5.06-1,.38-.09,3.62-1,4.26-3,2.16-11.89.85-15-1.21-2-1.26-2.7-6.69-4.51-8.19-3.06-2.58-11.25-6-15.17-5.25-4.85.89-9.92,11.74-14.76,12.74-5,1-16.84-2-19.79-6.14-3.25-4.68,4.76-17.81,1.49-22.51-2.16-3-13.24-.95-14.44-4.47-1-3,6.58-7.07,7.36-10.11.39-1.59.58-5.71-.89-6.5-5.18-2.76-15.2,9.45-21,10-3.09.3-9.75-1-12-3.14-1.92-1.81-3.26-7.33-3.13-9.91s2.66-7.06,3.91-9.23c1.73-3,5.48-9.13,8.33-11.19,3.49-2.51,12.12-5.12,16.47-5.51,7.51-.69,25.33-1.83,29.91,4.11,1.37,1.8-2.26,6.83-1.25,8.9,1.24,2.68,7.42,7.65,10.1,6.36,3.16-1.53,0-10.08.77-14.2a3.57,3.57,0,0,1,.36-1.13c1.32-2.4,6.38-5.15,8.75-6.57,4-2.37,13.91-4.34,16.93-7.86,1.17-1.36,1-5.42,2-6.89,3.11-4.61,12.76-11,17.68-13.72,4.12-2.29,16.7-2.11,17.74-6.68.1-.45-1.36-.91-1.29-1.39.35-3.76,8.7-8.35,12.56-8.76a7.59,7.59,0,0,1,4,1.64c.57.48.82,2.44,1.58,2.58,1.57.26,3.46-3.31,4.86-4,.25-.14,1.08,0,1.11-.31,0-1.14-3.49-.88-4.58-1.28s-3.94-1.1-4.53-2.2-.06-3.53.56-4.46a6.06,6.06,0,0,1,2.78-1.69,13.9,13.9,0,0,1,5.55.78,7.17,7.17,0,0,1,2.4,1.42c.79,1,.59,3.95,1.61,4.64a3.11,3.11,0,0,0,2.76,0c.06,0,0-.32,0-.35s.55.3.74.37c2,.41,6.25.94,7.89-.12.83-.55.7-3.21,1.59-3.56,1.09-.42,3.69.73,4.28,1.69s.08,3.2-.52,4c-.69,1-4.68,1-4.47,2.19h0c.77.87-.61,3.55,0,4.5,1.48,2.22,7.35,3.37,9.81,4.49.92.41,3.17.85,3.73,1.71,0,0-.08.08,0,.14a3.45,3.45,0,0,0,3.27.19c1.17-.93,1.64-4.56,1-5.93-.83-1.81-5.17-3.22-6.89-4.29-.92-.57-3-1.33-3.59-2.24-.39-.62-.72-2.36-.25-2.92.7-.93,3.45-.65,4.6-.87s4.16-.06,5-1c1.57-1.56,2.36-6.53,1.55-8.59-.54-1.43-3.62-2.89-4.82-3.85-1-.8-3.55-2.06-4.08-3.25-1.48-3.39,4.27-12.38,1.27-14.68s-10.38,4.2-14.06,4.53c-1.25.12-4.16.34-4.87-.68-1.64-2.35,4.07-8.41,2.74-10.94-2.22-4.07-12.88-6.95-17.55-6.65-2.32.17-6.85,2.57-8.16,4.48-2.43,3.5.78,13.78-2.21,16.84-2.45,2.5-11,.41-14,2.3-2.59,1.67-4.1,8.76-6.81,10.24-1.31.67-5,1.19-6,.09-2.44-2.63,3.87-11.07,1.87-14-1.81-2.64-9.58-1.94-12.43-3.45-1.69-.9-4.86-3.26-5.78-4.9-1.16-2.08-2.53-7.38-1.33-9.43,3.25-5.59,17.93-8.09,24.26-9.81,2.8-.76,9.25-3.61,11.51-1.77,1.42,1.2-1.17,6.06.13,7.41,1.07,1.12,4.94,1.4,6.22.54.78-.53.2-3,1-3.59,1.28-1,5.28,1,6.54,0a1.46,1.46,0,0,0,.27-1.29c-.29-.67-2.19-.85-2.6-1.5-.52-.83-.82-3.24-.11-3.92,1.41-1.37,6.08,1,8,.42,1.64-.49,4.15-3.06,5.43-4.18.09-.08.2-.32.3-.34l.06.05c.53,0,1.16-1.11,1.65-1.27,4-1.33,13-1.48,16.9.23,2.22,1,7.13,4.82,6.56,7.14-1.29,5.22-20.62,2-20.61,7.37,0,6.22,17.84,11.16,23.8,9.06,2.09-.76,2.26-6.63,4.25-7.59.45-.23,1.56.22,2.11.28,2.15.31,6.62,2,8.62,1.21s5.29-4.54,4.71-6.47-6.36-1.23-7.36-2.9c-1.16-1.94,2.17-6.83,1.16-8.88-.57-1.15-3.43-2-4.56-2.74-4.44-2.7-12.84-9.34-17.85-10.81-4-1.19-12.59-1.08-16.69-.43-2.6.4-8.29,1.41-9.88,3.45-1.8,2.31,1.58,10-.88,11.62-2,1.36-7.92-.91-9.5-2.78-1.07-1.28-1.36-5.1-.65-6.59,1.31-2.78,11.06-3.9,10.37-6.95-.92-4.08-12.51-3.05-16.75-3.14-1.28,0-4,0-5,.76-1.25.88-3.44,3.88-2.86,5.27s5.45.47,6.18,1.91-.71,5.12-2.07,6c-2.27,1.46-8.44-2.08-10.8-.85-1,.53-1.25,3.36-2.26,3.87-3.46,1.74-13.09,1.24-15.61-1.73-1.37-1.62.56-8.18.15-8.76,1,.28,9.46,2.15,12.16,1.44,3.15-.8,10.55-4.38,10.46-7.57-.06-1.4-3.32-3.21-4.77-3.18-2.33,0-5.24,5-7.54,5.47-2.76.58-8.84-.5-11.1-2.16s-3.15-8.37-5.53-10c-1.49-1-4.16-1.66-6.86-2a247.26,247.26,0,0,0-23.63,9.34c1.65,2.39,11.12-.86,13.46,1.39a5.15,5.15,0,0,1,.76,4.09c-.46,1.11-4.31,1.6-4,2.79.9,3.66,12.23,0,15.09,2.49,1.12,1,2.61,4.6,1.61,5.66-2.88,3.13-14.1.21-17-2.93-.74-.82.35-3.41-.3-4.24-1.69-2.18-8-2.46-10.43-3.77-1.13-.59-2.75-2.21-4.14-3.16a243.05,243.05,0,0,0-109.67,106.2C910.23,384.49,913,385.5,913.66,387Z" style="fill: #fff"/>
                  <path d="M1347,595.28a243.56,243.56,0,0,1-53.59,76.94c.92-3.83,2.9-8.34,2.4-10.89-.62-3.06-4.63-7.48-6.75-11.13a9.79,9.79,0,0,1-1.25-2.94c-1-4.91,4-15,2.6-19.79a6.79,6.79,0,0,0-1.74-2.6c-1.72-1.92-4.16-4-4.72-5.62-.59-2-.22-6.37.48-8.33,1.64-4.66,11.1-11.22,11.67-16.19,1-8.84-13-24.27-13.75-33.14-.45-5.29,7.67-16,4.86-20.5-2.16-3.39-12.4-1.65-15.8-3.83-1.79-1.14-3.33-5.54-5.14-6.59-2.35-1.35-8.13-2.08-10.76-1.51-1.83.44-4.28,3.79-6.09,4.22-4.66,1-14.71-4.72-19-2.65-.39.22-.44,1.37-.85,1.57-2.34,1.16-8.27-.07-10.51-1.44-7.89-4.87-18.58-21.47-20.68-30.3-1.22-5.19-.71-17.13,2.94-21,.74-.76,3.42-.19,4.23-.89a8.44,8.44,0,0,0,1.72-2.54c.94-1.88,1.53-4.17.79-5.26s-4.65.19-5.67-.81c-1.59-1.55-2.24-6.78-1.21-8.74,3.93-7.56,25.68-8.94,30.61-15.87,2.05-2.92-.36-11.24,1.84-14,2.43-3,10.73-5.31,14.7-5.55,1.39-.08,4,1.05,5.45,1.29,2.79.53,8.45,1.9,11.27,1.56,2.5-.24,7-3,9.44-3.41,7.1-1,24.13-3.69,28.72,1.78,2.36,2.75-3.73,11.09-1.86,14.19,2.11,3.55,9.78,4.85,15.77,6.46a21.94,21.94,0,0,1,5.91,2.19c1.18.72,2.77,3.12,4,3.69.94.47,3.29,1.18,4.1.57,1.57-1.16-.5-6.48,1-7.72,2.5-2,10.11-.73,13.12.56,3.57,1.52,7.66,9,11.15,10.66a35.4,35.4,0,0,0,8.58,2.43A242.75,242.75,0,0,1,1347,595.28Z" style="fill: #fff"/>
                  <path d="M1113.29,377.2c.78.81,3.4.46,4.49.3a7,7,0,0,0,3-1.33c.59-.64.43-2.82,1.17-3.32s2.83.6,3.64.22,2.06-1.91,1.8-2.69-2.41-.93-3.23-1.11-2.23-.66-2.89-.34c-.92.46-1.06,3.12-2,3.58-1.62.77-5.79-2.09-7.25-1a3.76,3.76,0,0,0-.5,3.66c.29.33,1.45-.09,1.76.24S1112.54,376.46,1113.29,377.2Z" style="fill: #fff"/>
                </g>
                <path d="M1363.89,453.12c-.33,1.82-.67,3.63-1,5.44a242.36,242.36,0,0,1-6.86,26,250,250,0,0,1-9,23.63,242.58,242.58,0,0,1-102.3,113.4.47.47,0,0,1-.09.06,245.61,245.61,0,0,1-88.73,29.89,271.05,271.05,0,0,1-30.87,1.32c-1.77-.06-3.5-.09-5.21-.16-.58,0-1.17,0-1.74-.06-2.26-.09-4.46-.19-6.61-.35-1.08,0-2.17-.11-3.22-.2l-2.72-.21c-2.68-.23-5.28-.49-7.71-.77-.51,0-1-.11-1.45-.16-.91-.12-1.82-.22-2.69-.36-.47,0-.9-.09-1.32-.13s-1-.12-1.48-.2c-1-.14-1.9-.25-2.83-.4l-2.69-.4-1.27-.23c-1.28-.19-2.51-.4-3.67-.62l-2.26-.41c-8.57-1.6-13.47-3-13.47-3-3.13-.82-6.25-1.68-9.29-2.57-.81-.27-1.62-.52-2.45-.76s-1.61-.5-2.4-.75l-2.44-.76c-3.2-1-6.36-2.11-9.48-3.21q-3.45-1.25-6.83-2.55l-.26-.09-2.14-.84c-1.52-.62-3-1.22-4.52-1.84l-2-.84c-1.57-.66-3.13-1.33-4.67-2-.71-.3-1.44-.65-2.18-1s-1.36-.6-2.05-.93c-.17-.06-.31-.16-.48-.21-1.34-.61-2.62-1.23-3.92-1.88l-2.16-1-2.12-1.06c-.45-.24-.87-.49-1.33-.7-.25-.13-.49-.28-.74-.42A243.47,243.47,0,0,1,894.55,493.05q-1.49-4.08-2.84-8.22A250.5,250.5,0,0,1,884.84,459c-.39-1.88-.74-3.77-1.08-5.66-.82,4.48-1.54,9-2.1,13.46a241.88,241.88,0,0,0-.75,52.81,247.74,247.74,0,0,0,4,26.51A244.89,244.89,0,0,0,891.77,572c.9,2.76,1.84,5.51,2.83,8.22A243.49,243.49,0,0,0,1003.22,708.8c.25.15.49.3.74.43.45.21.88.46,1.32.69l2.13,1.06,2.16,1c1.29.64,2.58,1.26,3.92,1.88.16.05.31.15.47.21.7.32,1.36.65,2.06.93s1.47.69,2.18,1c1.53.71,3.1,1.37,4.66,2l2,.84,4.51,1.84c.71.26,1.44.56,2.14.84l.27.09c2.24.86,4.53,1.72,6.83,2.54q4.68,1.66,9.48,3.21c.81.25,1.62.5,2.43.77s1.6.53,2.41.75,1.64.49,2.45.75c3,.9,6.15,1.75,9.28,2.58,0,0,4.9,1.41,13.48,3,.7.12,1.47.27,2.25.42,1.17.22,2.4.42,3.68.61.4.08.83.17,1.27.24l2.68.39c.93.15,1.86.27,2.84.4.51.09,1,.12,1.47.21s.86.1,1.33.13c.87.13,1.77.23,2.69.35.47.06.94.13,1.44.16,2.44.28,5,.55,7.72.78l2.72.2c1,.09,2.14.17,3.21.21,2.16.16,4.36.26,6.61.35.58,0,1.17.06,1.75.06,1.71.07,3.43.1,5.2.16a273.28,273.28,0,0,0,30.87-1.32,245.48,245.48,0,0,0,88.74-29.9.24.24,0,0,0,.09-.06A242.61,242.61,0,0,0,1347,595.28q5.15-11.71,9-23.63a243.61,243.61,0,0,0,6.86-26,241.62,241.62,0,0,0,2.17-85.54Q1364.54,456.63,1363.89,453.12Z" style="opacity: 0.30000000000000004;mix-blend-mode: overlay"/>
              </g>
            </g>
          </g>
          <g>
            <path d="M1017.9,277.06s2.7-12.49,3.84-13.88,8.8-4.41,10-3.7,21.49,17.06,21.49,17.06-3.8,6.06-10.1,3.46-12.41-8.79-12.41-8.79Z" style="fill: #ffb295"/>
            <path d="M1030.47,271.47s2-12.54,3.19-13.94,6.53-3.18,7.76-2.47,23.75,16.19,23.75,16.19-4.78,6.73-11.08,4.13-14.57-8.18-14.57-8.18Z" style="fill: #ffb295"/>
            <path d="M1043.17,265.36s1.68-10.29,2.62-11.44,5.36-2.61,6.37-2,19.5,13.3,19.5,13.3-3.92,5.52-9.09,3.39a85.27,85.27,0,0,1-12-6.72Z" style="fill: #ffb295"/>
            <path d="M1051,259.45s4.26-9.56,5.09-11.1,17.79.23,17.79.23,1.31,5.89-2.29,7-9.54.95-9.54.95l-1.94.91-8.67,4.2Z" style="fill: #ffb295"/>
            <path d="M1014,278.91s-7.48-7.18-12.26-6.72-7.28,5.05-7.28,5.05l8.26,7.71Z" style="fill: #ffb295"/>
          </g>
          <g>
            <g>
              <path d="M875.76,368.21c30.69-19.41,67.1-5.49,67.1-5.49a17,17,0,0,1,1.47,2.29c-4.35,11.55-46.79,83-46.79,83L848.63,462l-5.84-2.87Z" style="fill: #fff"/>
              <g>
                <path d="M993.66,366.23l-7.15-6.84s-32.44-8-43.65,3.33a1.73,1.73,0,0,0,1.47,2.29,12.39,12.39,0,0,0,6,0Z" style="fill: #fff"/>
                <path d="M909.41,450.87s20.63-9.42,50.42-4.79l1.72-3.72h0l35.13-75.8S965.24,357,950.36,365l-18.09,37.93Z" style="fill: #f49015"/>
                <path d="M903.38,450.87a4.13,4.13,0,0,0,6,0l22.86-47.93L950.36,365h-6l-30.73,64.43-10,20.9C903.47,450.7,903.38,450.87,903.38,450.87Z" style="fill: #fdd247"/>
              </g>
              <path d="M848.63,462.05l54.75-11.18s.09-.17.26-.53c1-2.11,5.12-10.27,10.29-20.8l2.42-4.91c2.1-4.27,4.32-8.82,6.57-13.41l1.93-3.93,1.64-3.39c9.76-20.09,18.75-39,17.83-38.89,0,0-44.28-3.89-61.48,7.32l-7.41,19.45Z" style="fill: #f49015"/>
              <path d="M848.63,462.05l54.75-11.18a4.13,4.13,0,0,0,6,0s20.63-9.42,50.42-4.79l9-19.46c-1,0-24.47-19.19-18.49-61.61,0,0-30.37,65-30.59,64.92-3.67-1.06-42.16-11.75-44.35-38.15Z" style="fill: #2e3442;opacity: 0.30000000000000004;mix-blend-mode: overlay"/>
              <g>
                <path d="M849.49,424.63l-24.35,5.61s-3.73,19.45,3.07,29.86l44.64-9.44Z" style="fill: #ffb295"/>
                <path d="M925.8,415.89l-16.9,9.8.11-.05.47-.24h0l.34-.18.32-.16.37-.18c2-1,5.25-2.41,7.33-2.63h0a3.81,3.81,0,0,1,1,0l.33.1a5.05,5.05,0,0,1,3.76,4S905.35,439,898.21,443.73c-13.62,9.64-32.91,7.66-32.91,7.66-9.8.77-21.51-15.36-21.51-15.36s3.26-17.36,5.8-22.07a14.29,14.29,0,0,1,13.94-8.7l-2.91,7.09s-2.21,4.65-.36,5,10.41-3.21,13.1-5.68c8.09-8.5,19.13-19.68,23.69-20.83a10.42,10.42,0,0,1,11.18,3.86l-25.39,25.18c.67-.54,22-18.05,27.68-22.18s12.34,2.69,13.64,5.76L906,417l.29-.18.46-.31,1.33-.86c3.1-2,8.66-5.3,10.8-5.25a2.53,2.53,0,0,1,.29,0,4.72,4.72,0,0,1,1.37.15,3.94,3.94,0,0,1,.83.31C924.26,412.12,925.8,415.89,925.8,415.89Z" style="fill: #ffb295"/>
                <path d="M921.39,410.8l-32.21,16.89L905.92,417l.1-.08.29-.18.46-.31,1.33-.86c3.1-2,8.66-5.3,10.8-5.25a2.53,2.53,0,0,1,.29,0,4.72,4.72,0,0,1,1.37.15A3.94,3.94,0,0,1,921.39,410.8Z" style="fill: #ffb295;opacity: 0.7000000000000001;mix-blend-mode: multiply"/>
                <path d="M918.89,422.25l-25.51,12.48,15.42-9,.1-.06.11-.05.47-.24h0l.34-.18.32-.16.37-.18c2-1,5.25-2.41,7.33-2.63h0A3.81,3.81,0,0,1,918.89,422.25Z" style="fill: #ffb295;opacity: 0.7000000000000001;mix-blend-mode: multiply"/>
              </g>
            </g>
            <path d="M777.9,370.87c.57-36.34-21.28-57.51-21.28-57.51-33.66,20.69-62.32,144-51.88,165.57s115.65-3.87,136.33-14.8c0,0,1-25.89-11.36-39.5L761.27,436.8S774.89,392.36,777.9,370.87Z" style="fill: #fdd247"/>
          </g>
        </g>
        <g>
          <path d="M874.67,782.87l141.78,115.85H874.67V782.87M823.79,675.6v274h335.31l-335.32-274Z" style="fill: #fdd247"/>
          <g>
            <rect x="1036.78" y="866.24" width="16.96" height="3.39" transform="translate(-288.9 1124.64) rotate(-50.6)"/>
            <rect x="1005.32" y="840.41" width="16.96" height="3.39" transform="translate(-280.43 1090.9) rotate(-50.6)"/>
            <rect x="1052.51" y="879.15" width="16.96" height="3.39" transform="matrix(0.63, -0.77, 0.77, 0.63, -292.99, 1142.25)"/>
            <rect x="989.59" y="827.5" width="16.96" height="3.39" transform="translate(-276.06 1074.72) rotate(-50.63)"/>
            <rect x="1021.05" y="853.32" width="16.96" height="3.39" transform="translate(-284.53 1108.49) rotate(-50.63)"/>
            <rect x="1099.69" y="917.89" width="16.96" height="3.39" transform="translate(-305.68 1192.88) rotate(-50.63)"/>
            <rect x="1115.42" y="930.8" width="16.96" height="3.39" transform="translate(-310.07 1208.98) rotate(-50.6)"/>
            <rect x="1068.23" y="892.06" width="16.96" height="3.39" transform="translate(-297.37 1158.37) rotate(-50.6)"/>
            <rect x="1083.96" y="904.97" width="16.96" height="3.39" transform="translate(-301.45 1176.01) rotate(-50.63)"/>
            <rect x="926.68" y="775.85" width="16.96" height="3.39" transform="translate(-259.26 1006.56) rotate(-50.6)"/>
            <rect x="848.04" y="711.28" width="16.96" height="3.39" transform="translate(-237.98 922.82) rotate(-50.63)"/>
            <rect x="863.77" y="724.19" width="16.96" height="3.39" transform="translate(-242.21 939.69) rotate(-50.63)"/>
            <rect x="973.87" y="814.58" width="16.96" height="3.39" transform="translate(-271.83 1057.85) rotate(-50.63)"/>
            <rect x="832.32" y="698.37" width="16.96" height="3.39" transform="translate(-233.76 905.89) rotate(-50.63)"/>
            <rect x="879.5" y="737.11" width="16.96" height="3.39" transform="translate(-246.56 955.94) rotate(-50.6)"/>
            <rect x="958.14" y="801.67" width="16.96" height="3.39" transform="translate(-267.73 1040.29) rotate(-50.6)"/>
            <rect x="942.41" y="788.76" width="16.96" height="3.39" transform="translate(-263.24 1024.76) rotate(-50.66)"/>
            <rect x="910.96" y="762.93" width="16.96" height="3.39" transform="translate(-254.91 990.32) rotate(-50.63)"/>
            <rect x="895.23" y="750.02" width="16.96" height="3.39" transform="translate(-250.67 973.45) rotate(-50.63)"/>
          </g>
        </g>
        <g>
          <path d="M1157,941.85A30.67,30.67,0,0,1,1126,973.23l-152-.15c0-.8.53-4,1-8.72.12-1.13.23-2.35.35-3.66.25-3,.49-6.39.59-10.07,0-1.19.06-2.41.06-3.67,0-3.25,0-6.7-.26-10.22-.07-1.22-.17-2.45-.28-3.68-.31-3.43-.76-6.92-1.41-10.4-.23-1.24-.48-2.48-.77-3.7a80,80,0,0,0-2.76-9.62l153.4.15C1147,909.52,1156.62,924.11,1157,941.85Z" style="fill: #fff"/>
          <g style="opacity: 0.2;mix-blend-mode: multiply">
            <path d="M1127.61,960.85l-152.56,3.51c.12-1.13.23-2.35.35-3.66Z" style="fill: #606060"/>
            <path d="M1144.25,947.13,976,950.63c0-1.19.06-2.41.06-3.67Z" style="fill: #606060"/>
            <path d="M1126.7,933.2l-150.91,3.54c-.07-1.22-.17-2.45-.28-3.68Z" style="fill: #606060"/>
            <path d="M1136.82,919.12,974.1,922.66c-.23-1.24-.48-2.48-.77-3.7Z" style="fill: #606060"/>
          </g>
          <g>
            <path d="M1432.52,922c-7.91-14.73-24.19-19.64-34-19.65L990.47,902l.68,7.38,132.82.13c19.7,0,29.86,12,32.51,27.49a32.4,32.4,0,0,1,.47,4.87,31.9,31.9,0,0,1-.29,4.83c-.13,1-.3,1.89-.52,2.82s-.47,1.81-.75,2.69a30.65,30.65,0,0,1-29.35,21L997,973.08l.17,1.84.55,6,399.49.39c21.48,0,39.88-9,39.91-39.41A41.22,41.22,0,0,0,1432.52,922Z" style="fill: #18898d"/>
            <path d="M1327.74,902.32,990.47,902l.68,7.39,132.82.13c21,0,29.86,12,32.51,27.48a31,31,0,0,1,.47,4.87,30.66,30.66,0,0,1-.29,4.83,26.25,26.25,0,0,1-.52,2.81c-.21.93-.46,1.83-.75,2.71a30.67,30.67,0,0,1-29.35,21l-129-.13.71,7.79,325.46.32c18.3,0,34.62-12.5,40-29.6a40.94,40.94,0,0,0,1.75-9.1A36.89,36.89,0,0,0,1327.74,902.32Z" style="fill: #18898d"/>
            <path d="M1167.79,902.16,964.17,902c-2.79,0-4.87,1.65-4.65,3.68l.08.78c.24,2.26,2.45,3.3,4.71,3.64a11.57,11.57,0,0,0,1.92.16l131-.61,26.74-.11c16.2,0,32.53,8.45,32.51,32.35s-16.21,29.34-30,29.32l-25.28-.2-133.66-1.1a3.61,3.61,0,0,0-1.16.19,7.24,7.24,0,0,0-1.2.56,5.5,5.5,0,0,0-3,4.28,5.39,5.39,0,0,0,2,4.44,5,5,0,0,0,3.22,1.51l201.38.2a38.85,38.85,0,0,0,39-38.7A40.12,40.12,0,0,0,1167.79,902.16Z" style="fill: #18898d"/>
            <rect x="1204.14" y="922.98" width="188.84" height="32.83" style="fill: #fff;opacity: 0.2;mix-blend-mode: overlay"/>
            <path d="M1125.16,901.92l-161-.16c-2.79,0-4.87,1.65-4.65,3.68l.08.78c.24,2.26,2.45,3.3,4.71,3.64a11.57,11.57,0,0,0,1.92.16l131-.61,26.74-.11c16.2,0,32.53,8.45,32.51,32.35s-16.21,29.34-30,29.32l-25.28-.2-133.66-1.11a3.93,3.93,0,0,0-1.16.2,7.24,7.24,0,0,0-1.2.56,5.5,5.5,0,0,0-3,4.28,5.37,5.37,0,0,0,2,4.44,5,5,0,0,0,3.21,1.51l158.75.16c9.73,0,39.82-5.85,39-37.09S1147.32,901.94,1125.16,901.92Z" style="fill: #fff;opacity: 0.2;mix-blend-mode: overlay"/>
          </g>
          <path d="M1437.1,941.87c0,30.39-18.43,39.43-39.91,39.41l-429.76-.42a5,5,0,0,1-3.22-1.52,5.39,5.39,0,0,1-2-4.44c3.29,0,16.81,0,34.91,0,47.88,0,127.86.09,136.06.08,277.4.27,291.6-40.13,299.31-53A41.22,41.22,0,0,1,1437.1,941.87Z" style="opacity: 0.30000000000000004;mix-blend-mode: overlay"/>
          <path d="M1092.17,932.27s-11.86,13.36-10.23,39.17l13.51-9.93,13.49,10s-5-21.86,7.38-39.7Z" style="fill: #0a3e69"/>
        </g>
        <g>
          <path d="M1146.36,865.06A28.4,28.4,0,0,0,1175,894.12l140.79-.14c0-.74-.49-3.67-1-8.07-.11-1-.22-2.18-.32-3.39-.24-2.77-.46-5.93-.55-9.33,0-1.1-.06-2.23-.06-3.4,0-3,0-6.2.24-9.47.07-1.13.16-2.26.26-3.41.29-3.17.71-6.41,1.31-9.63.21-1.14.44-2.29.71-3.42A74.25,74.25,0,0,1,1319,835l-142.07.14C1155.61,835.11,1146.66,848.63,1146.36,865.06Z" style="fill: #fff"/>
          <g style="opacity: 0.2;mix-blend-mode: multiply">
            <path d="M1173.53,882.65l141.3,3.26c-.11-1-.22-2.18-.32-3.39Z" style="fill: #606060"/>
            <path d="M1158.12,870,1314,873.19c0-1.1-.06-2.23-.06-3.4Z" style="fill: #606060"/>
            <path d="M1174.37,857.05l139.77,3.27c.07-1.13.16-2.26.26-3.41Z" style="fill: #606060"/>
            <path d="M1165,844l150.71,3.27c.21-1.14.44-2.29.71-3.42Z" style="fill: #606060"/>
          </g>
          <g>
            <path d="M886.89,865.08c0,28.14,17.07,36.52,37,36.5l370-.37.51-5.53.15-1.69L1175,894.1a28.37,28.37,0,0,1-27.19-19.46c-.26-.82-.5-1.65-.7-2.5a25.47,25.47,0,0,1-.47-2.61,28.56,28.56,0,0,1-.27-4.47,29,29,0,0,1,.43-4.51c2.46-14.33,11.87-25.44,30.11-25.46l123-.12.62-6.83-377.94.37c-9.07,0-24.15,4.56-31.46,18.2A38.07,38.07,0,0,0,886.89,865.08Z" style="fill: #f49015"/>
            <path d="M953.74,865.66a37.89,37.89,0,0,0,1.62,8.43c5,15.83,20.11,27.43,37.06,27.41l301.43-.29.66-7.22-119.53.12a28.38,28.38,0,0,1-27.17-19.47c-.27-.81-.51-1.65-.71-2.5a25.47,25.47,0,0,1-.47-2.61,27.4,27.4,0,0,1-.27-4.47,28.85,28.85,0,0,1,.43-4.51c2.45-14.33,10.63-25.44,30.11-25.46l123-.12.63-6.83-312.36.3A34.17,34.17,0,0,0,953.74,865.66Z" style="fill: #f49015"/>
            <path d="M954.27,865.66a37.89,37.89,0,0,0,1.62,8.43c5,15.83,20.11,27.43,37.06,27.41l301.43-.29L1295,894l-119.53.12a28.4,28.4,0,0,1-27.18-19.47c-.27-.81-.5-1.65-.7-2.5s-.36-1.73-.48-2.61a29.44,29.44,0,0,1,.17-9c2.45-14.33,10.63-25.44,30.11-25.46l123-.12.63-6.83-312.37.3A34.17,34.17,0,0,0,954.27,865.66Z" style="fill: #fff;opacity: 0.2;mix-blend-mode: overlay"/>
            <path d="M1099.25,865.52a36,36,0,0,0,36.13,35.84l186.5-.18a4.58,4.58,0,0,0,3-1.4,5,5,0,0,0,1.83-4.11,5.11,5.11,0,0,0-2.76-4,6.93,6.93,0,0,0-1.11-.51,3.66,3.66,0,0,0-1.08-.19L1198,892l-23.41.19c-12.74,0-27.72-5-27.75-27.16s15.11-29.95,30.11-30l24.77.11,121.33.56a10.81,10.81,0,0,0,1.77-.14c2.1-.32,4.14-1.28,4.37-3.38l.07-.71c.21-1.89-1.72-3.42-4.31-3.42l-188.58.19A37.16,37.16,0,0,0,1099.25,865.52Z" style="fill: #f49015"/>
            <path d="M1138.73,866.79c-.75,28.94,27.11,34.36,36.13,34.35l147-.15a4.61,4.61,0,0,0,3-1.39,5,5,0,0,0,1.83-4.12,5.14,5.14,0,0,0-2.76-4,7.92,7.92,0,0,0-1.11-.51,3.65,3.65,0,0,0-1.08-.18l-123.79,1-23.41.19c-12.74,0-27.73-5-27.75-27.16s15.11-30,30.11-30l24.77.1,121.33.57a10.85,10.85,0,0,0,1.77-.15c2.1-.31,4.14-1.28,4.37-3.37l.07-.72c.21-1.88-1.72-3.42-4.31-3.41l-149.1.14C1155.28,828.09,1139.49,837.85,1138.73,866.79Z" style="fill: #fff;opacity: 0.2;mix-blend-mode: overlay"/>
          </g>
          <path d="M886.89,865.08c0,28.14,17.07,36.52,37,36.5l398-.4a4.67,4.67,0,0,0,3-1.4,5,5,0,0,0,1.82-4.11c-3,0-15.57,0-32.33,0-44.34,0-118.43.09-126,.08-256.91.25-270.07-37.16-277.2-49A38.07,38.07,0,0,0,886.89,865.08Z" style="opacity: 0.30000000000000004;mix-blend-mode: overlay"/>
        </g>
        <g>
          <g>
            <polyline points="1298.1 922.15 1254.67 942.88 1261.03 957.76 1295.43 993.78 1308.87 1007.83 1309.45 1008.45 1307.91 986.66 1304.39 936.85" style="fill: #ffb295"/>
            <path d="M1294.76,993.06c5.52-1.1,10-3.16,13.16-6.38l1.54,21.77-.59-.61Z" style="fill: #0a3e69"/>
            <path d="M1298.71,991.92l-23.65-41.5c-11.93-11.76-17.79-11.65-14,7.34l34.4,36,13.44,14.05a.15.15,0,0,0,.05-.22Z" style="opacity: 0.30000000000000004;mix-blend-mode: overlay"/>
            <path d="M1304.39,936.84c-9.19-11.51-17.83-5.47-13.55,7.53l13.33,44.43,5.28,19.65-1.54-21.79Z" style="fill: #fff;opacity: 0.30000000000000004;mix-blend-mode: overlay"/>
          </g>
          <g>
            <path d="M1167.5,744.79l26.32,59.91,10.68,24.38L1261,957.76a4.34,4.34,0,0,0-.12-.69c-1.41-9.18,8.8-12.16,15.42-4.18l-.28-.65a.5.5,0,0,0,0-.16c-.25-.76-.4-1.46-.43-1.58a.65.65,0,0,0,0-.24c-.23-8.59,8-13.08,13.92-7.36a.37.37,0,0,1,.17.14c.1.12.24.24.34.35a1.7,1.7,0,0,1,.19.19s.07.1.11.13c.17.22.37.42.53.67a.11.11,0,0,0,0-.06v0c0-.27,0-.53-.07-.81s0-.81,0-1.19a1.07,1.07,0,0,1,0-.36,4.07,4.07,0,0,1,0-.61q0-.32.06-.6c0-.16.05-.37.07-.56a3.27,3.27,0,0,1,.12-.56c.09-.35.17-.71.28-1.05a10.58,10.58,0,0,1,.59-1.42,5.73,5.73,0,0,1,.48-.84,9.31,9.31,0,0,1,.58-.73,2.59,2.59,0,0,1,.3-.34l.34-.31a5.55,5.55,0,0,1,2-1.2,3.94,3.94,0,0,1,1.19-.31,6.32,6.32,0,0,1,1.94,0,9,9,0,0,1,2.78,1.05,10,10,0,0,1,1.4,1,12.6,12.6,0,0,1,1.43,1.33.06.06,0,0,1,.07,0,.08.08,0,0,0,.05.05l-36.5-83-13.73-31.25-42.63-97.13Z" style="fill: #fdd247"/>
            <path d="M1167.35,744.85l10.59,24,15.77,35.85,10.79,24.33,6.62,15.09,30,68.07,14.57,33.29,5.37,12.23a4.34,4.34,0,0,0-.12-.69c-1.41-9.18,8.8-12.16,15.42-4.18l-.31-.71-.25-.5s0,0,0-.06,0,0,0,0-.11-.27-.17-.45a3,3,0,0,1-.2-.47c-.07-.15-.16-.3-.24-.47-2.47-5.45-8.83-19.62-20.28-45.87-5.27-12.06-15.53-35.49-28.8-65.68-.62-1.47-1.27-2.9-1.9-4.39l-21.68-49.36q-2.74-6.17-5.5-12.51c-1.84-4.21,68.85,156.66,67,152.34l-2.85-6.49c-.72-1.59-1.42-3.24-2.13-4.85l-14.74-33.56c-1.66-3.79-3.35-7.57-5-11.39-5.75-13-11.53-26.19-17.29-39.31l-2.92-6.64c-1.94-4.41-3.9-8.81-5.81-13.23-1.85-4.15-3.69-8.34-5.52-12.5-5.34-12.16-10.64-24.16-15.79-35.88L1182,738.42l-14.49,6.37Z" style="opacity: 0.30000000000000004;mix-blend-mode: overlay"/>
            <path d="M1197.23,731.73l93.06,212c.17.22.37.42.53.67a.11.11,0,0,0,0-.06v0c0-.27,0-.53-.07-.81s0-.81,0-1.19a1.07,1.07,0,0,1,0-.36,4.07,4.07,0,0,1,0-.61q0-.32.06-.6c0-.16.05-.37.07-.56a3.27,3.27,0,0,1,.12-.56c.09-.35.17-.71.28-1.05a10.58,10.58,0,0,1,.59-1.42,5.73,5.73,0,0,1,.48-.84,9.31,9.31,0,0,1,.58-.73,2.59,2.59,0,0,1,.3-.34l.34-.31a5.55,5.55,0,0,1,2-1.2,3.94,3.94,0,0,1,1.19-.31,6.32,6.32,0,0,1,1.94,0,9,9,0,0,1,2.78,1.05,10,10,0,0,1,1.4,1,12.6,12.6,0,0,1,1.43,1.33.06.06,0,0,1,.07,0,.08.08,0,0,0,.05.05l-36.5-83-13.73-31.25-42.63-97.13Z" style="fill: #fff;opacity: 0.30000000000000004;mix-blend-mode: overlay"/>
          </g>
          <path d="M1151.8,709l12.09,27.54L1208,717.21l-12.09-27.54a24.07,24.07,0,0,0-44.48,1,21.55,21.55,0,0,0-.82,2.58A23.84,23.84,0,0,0,1151.8,709Z" style="fill: #f49015"/>
          <path d="M1151.8,709l12.09,27.54L1208,717.21l-10.27-23.4c-29.2,19.2-41.91,8.48-47.12-.6A23.84,23.84,0,0,0,1151.8,709Z" style="opacity: 0.30000000000000004;mix-blend-mode: overlay"/>
          <g>
            <rect x="1165.43" y="708.69" width="48.15" height="52.62" transform="translate(2574.16 929.56) rotate(156.29)" style="fill: #fff"/>
            <rect x="1166.77" y="715.08" width="16.37" height="52.62" transform="translate(2548.87 947.61) rotate(156.28)" style="opacity: 0.1;mix-blend-mode: multiply"/>
          </g>
        </g>
        <g>
          <path d="M691.23,738.53l10.29-2.93c-.37-1.29-9.26-31.38-31.95-29.09-22.11,2.2-28.73,29-29,30.1L651,739.1c0-.2,5.15-20.5,19.65-21.94C684.54,715.79,691.16,738.31,691.23,738.53Z" style="fill: #f49015"/>
          <path d="M561.06,915.83a212.84,212.84,0,0,0,7.21,21c.35.86.7,1.72,1.08,2.58,5,11.82,11.88,24.13,19.42,26.52,15.22,4.81,83.08,2.62,83.08,2.62s67.88.07,82.94-5.22,26.14-50.9,26.14-50.9c-3.47-46.5-28.67-124.23-37.94-151.58-2.13-6.28-3.42-9.9-3.42-9.9l-142.21,2.23S563.53,858.57,561.06,915.83Z" style="fill: #f49015"/>
          <path d="M569.35,939.37c5,11.82,11.88,24.13,19.42,26.52,15.22,4.81,83.08,2.62,83.08,2.62s67.88.07,82.94-5.22,26.14-50.9,26.14-50.9c-3.47-46.5-28.67-124.23-37.94-151.58L668.81,774l-47.66,51.76s62.44,10.84,117.34,5.51c0,0-36.94,113.29-102.48,119.38C585.44,955.39,572.58,944.57,569.35,939.37Z" style="opacity: 0.30000000000000004;mix-blend-mode: overlay"/>
          <path d="M585.56,801.59a34.34,34.34,0,0,0,1.36,6.26c2.62,6.27,19.62,16.94,29.31,17.63,8.81.64,47.5-.59,54.45-.83,6.93,0,45.66,0,54.45-.87,9.66-1,26.31-12.19,28.74-18.54s4.89-57.35,2.53-60.92l-.12-.13c-2.56-2.06-22.08-13.12-38.91-12.86l-47.06.74-2.16,0-47.06.74c-16.83.26-36,11.92-38.49,14.07C580.51,748.71,583.11,785.91,585.56,801.59Z" style="fill: #18898d"/>
          <path d="M594.68,942.19c3.4,9.62,8.14,16,14.79,15.94l63.28-1,63.28-1c18.35-.29,20.73-49.86,20.52-79.39-.07-12.56-.64-21.48-.64-21.48-17.27-10-84.88-8.35-84.88-8.35s-67.59.43-84.57,11l0,0S584.71,913.9,594.68,942.19Z" style="fill: #fdd247"/>
          <path d="M586.44,857.93s14.46,27,24.13,26.41,106.43-1.24,121.1-4.65,24.24-24.41,24.24-24.41c-17.27-10-84.88-8.35-84.88-8.35s-67.59.43-84.57,11Z" style="fill: #18898d"/>
          <path d="M592.08,800.35a32.24,32.24,0,0,0,1.26,5.79c2.43,5.79,18.13,15.65,27.09,16.29,8.14.59,43.9-.55,50.32-.77,6.4,0,42.19,0,50.31-.8,8.93-.92,24.32-11.27,26.57-17.14s4.52-53,2.33-56.29l-.11-.12S739,825.13,592.08,800.35Z" style="opacity: 0.2;mix-blend-mode: overlay"/>
          <polygon points="665.41 858.32 674.17 865.59 682.52 857.84 681.08 806.19 663.97 806.67 665.41 858.32"/>
          <path d="M658.92,823.85l28-.79.57,20.57-28,.79Zm23.18,4.29-18.1.5.3,10.7,18.1-.5Z" style="fill: #fff"/>
          <path d="M602.13,936.53c3.08,8.74,7.39,14.56,13.42,14.47l57.43-.9,57.42-.9c16.64-.26,18.81-45.24,18.62-72l-.28-.15S742.41,951.46,602.13,936.53Z" style="opacity: 0.30000000000000004;mix-blend-mode: overlay"/>
        </g>
      </g>
    </g>
  </g>
</svg>
